Coordinates
version=1
nRows=38
nColumns=38
inDegrees=no

Units are S.I. units (second, meters, Newtons, ...)
If the header above contains a line with 'inDegrees', this indicates whether rotational values are in degrees (yes) or radians (no).

endheader
time	pelvis_tilt	pelvis_list	pelvis_rotation	pelvis_tx	pelvis_ty	pelvis_tz	hip_flexion_r	hip_adduction_r	hip_rotation_r	knee_angle_r	ankle_angle_r	subtalar_angle_r	mtp_angle_r	hip_flexion_l	hip_adduction_l	hip_rotation_l	knee_angle_l	ankle_angle_l	subtalar_angle_l	mtp_angle_l	lumbar_extension	lumbar_bending	lumbar_rotation	arm_flex_r	arm_add_r	arm_rot_r	elbow_flex_r	pro_sup_r	wrist_flex_r	wrist_dev_r	arm_flex_l	arm_add_l	arm_rot_l	elbow_flex_l	pro_sup_l	wrist_flex_l	wrist_dev_l
0.54	2.52969	1.28311	-1.13964	0.844731	0.0589192	0.951509	-0.460655	0.0194033	-0.107619	0.542134	0.17398	0	0	0.133368	-0.140169	-0.409793	0.116852	0.18607	0	0	-0.486395	0.176831	0.123065	0.364787	-0.416825	0.0721719	1.21002	0.976281	0	0	0.229729	-0.283841	-0.108375	1.19859	1.07089	0	0
0.55	2.54614	1.28035	-1.16714	0.844302	0.0722979	0.948839	-0.450595	-0.000196858	-0.0984953	0.594226	0.157941	0	0	0.136871	-0.140782	-0.413376	0.14979	0.131044	0	0	-0.491992	0.166501	0.129718	0.369754	-0.413541	0.0710454	1.20494	0.975983	0	0	0.235642	-0.285843	-0.105618	1.19762	1.06871	0	0
0.56	2.56866	1.28136	-1.19955	0.843836	0.0846438	0.947041	-0.43048	-0.0214218	-0.0857862	0.653583	0.132232	0	0	0.15464	-0.147668	-0.428911	0.208983	0.0764691	0	0	-0.497454	0.152232	0.13514	0.375916	-0.408599	0.0687951	1.1992	0.97409	0	0	0.245817	-0.287721	-0.100877	1.19416	1.06532	0	0
0.57	2.59739	1.28548	-1.24288	0.844147	0.0965882	0.946263	-0.402333	-0.0444504	-0.0629147	0.716934	0.0967638	0	0	0.173783	-0.15634	-0.453115	0.276806	0.0385491	0	0	-0.501888	0.132539	0.14579	0.380184	-0.403486	0.0644336	1.19402	0.9718	0	0	0.25913	-0.289934	-0.0919062	1.18562	1.06179	0	0
0.58	2.62774	1.28914	-1.2942	0.845223	0.108657	0.946157	-0.371455	-0.0666568	-0.0291146	0.780066	0.0540816	0	0	0.182079	-0.163217	-0.479808	0.330339	0.00342022	0	0	-0.506047	0.110649	0.164286	0.382298	-0.400767	0.0589589	1.18987	0.97478	0	0	0.273862	-0.291474	-0.0789898	1.17174	1.0621	0	0
0.59	2.66066	1.28937	-1.34594	0.845912	0.120853	0.946366	-0.344346	-0.0857043	0.00399589	0.839047	0.00949328	0	0	0.178081	-0.162582	-0.495608	0.360839	-0.0418802	0	0	-0.512568	0.0912988	0.180419	0.386633	-0.400658	0.0577887	1.18517	0.983152	0	0	0.286489	-0.291887	-0.0701291	1.15871	1.06474	0	0
0.6	2.69048	1.29065	-1.38985	0.84583	0.132828	0.946343	-0.315184	-0.100784	0.0339472	0.896038	-0.0337801	0	0	0.17224	-0.154993	-0.501172	0.378212	-0.0734685	0	0	-0.517301	0.0756223	0.191346	0.392555	-0.401562	0.0591177	1.17983	0.987257	0	0	0.296626	-0.291263	-0.0656919	1.14878	1.06501	0	0
0.61	2.71381	1.29337	-1.42305	0.845366	0.144525	0.946048	-0.283614	-0.110267	0.0621616	0.951746	-0.0751271	0	0	0.16767	-0.146489	-0.504633	0.39541	-0.0651551	0	0	-0.520008	0.0635347	0.197383	0.398614	-0.401223	0.0605744	1.17548	0.983157	0	0	0.303918	-0.291589	-0.0640083	1.14478	1.06344	0	0
0.62	2.73024	1.2969	-1.44652	0.844948	0.156011	0.945656	-0.251061	-0.113871	0.0896066	1.00572	-0.116372	0	0	0.16347	-0.138973	-0.507519	0.410565	-0.0427407	0	0	-0.521113	0.053976	0.200334	0.403958	-0.398816	0.060536	1.1726	0.974426	0	0	0.309281	-0.29359	-0.0632299	1.14637	1.06218	0	0
0.63	2.73577	1.30103	-1.45633	0.844604	0.16746	0.945296	-0.218912	-0.110804	0.115016	1.0561	-0.153918	0	0	0.162154	-0.1359	-0.513488	0.427859	-0.0252247	0	0	-0.520331	0.0480557	0.201548	0.408241	-0.395505	0.0589178	1.17066	0.967724	0	0	0.313588	-0.29623	-0.0630127	1.15062	1.06124	0	0
0.64	2.73008	1.30475	-1.45161	0.844135	0.178842	0.945342	-0.189503	-0.0999829	0.139779	1.10101	-0.173981	0	0	0.160501	-0.13401	-0.512794	0.442203	-0.00811998	0	0	-0.519363	0.0464614	0.201201	0.412261	-0.392826	0.0573646	1.1691	0.965413	0	0	0.317652	-0.298777	-0.0628258	1.15469	1.0597	0	0
0.65	2.71442	1.30789	-1.43425	0.843529	0.190182	0.94591	-0.16327	-0.083453	0.163073	1.14022	-0.162398	0	0	0.157025	-0.133497	-0.507571	0.453232	0.0114145	0	0	-0.518476	0.048879	0.199919	0.416163	-0.391584	0.0572753	1.16783	0.96571	0	0	0.32122	-0.301183	-0.0619454	1.15759	1.05663	0	0
0.66	2.693	1.30972	-1.40924	0.842724	0.201427	0.947194	-0.140314	-0.063514	0.184495	1.17292	-0.128807	0	0	0.150359	-0.133775	-0.500068	0.459338	0.0298112	0	0	-0.518791	0.0543433	0.198103	0.420373	-0.392103	0.0592202	1.16672	0.96579	0	0	0.324634	-0.303173	-0.059908	1.15891	1.05309	0	0
0.67	2.67023	1.31058	-1.38086	0.841648	0.212601	0.949213	-0.120412	-0.043578	0.201087	1.19623	-0.0918083	0	0	0.141607	-0.133968	-0.490846	0.461192	0.0442751	0	0	-0.520132	0.0619002	0.194907	0.424656	-0.39361	0.0625573	1.16576	0.965179	0	0	0.328188	-0.304669	-0.0569756	1.15846	1.04985	0	0
0.68	2.64677	1.31159	-1.35016	0.840373	0.223743	0.951791	-0.102303	-0.0255543	0.21142	1.20892	-0.0619226	0	0	0.132705	-0.133943	-0.479786	0.460156	0.0546827	0	0	-0.52119	0.070827	0.190396	0.428293	-0.395243	0.0660843	1.16477	0.963093	0	0	0.331914	-0.305561	-0.0539488	1.15599	1.04708	0	0
0.69	2.6245	1.31388	-1.31953	0.838926	0.234881	0.95466	-0.0840941	-0.0112504	0.215218	1.2127	-0.0397373	0	0	0.124833	-0.133057	-0.468423	0.457124	0.0619698	0	0	-0.520667	0.0799445	0.184633	0.430625	-0.396434	0.0684109	1.16396	0.960997	0	0	0.335313	-0.305713	-0.0517175	1.15232	1.04552	0	0
0.7	2.60477	1.31836	-1.29106	0.837353	0.246005	0.957563	-0.0640924	-0.00130217	0.214017	1.21036	-0.0209381	0	0	0.118349	-0.130541	-0.458186	0.451762	0.0668855	0	0	-0.517634	0.0880533	0.178046	0.431338	-0.397041	0.0688474	1.16348	0.958928	0	0	0.337935	-0.305025	-0.050662	1.14853	1.0448	0	0
0.71	2.58816	1.32427	-1.2657	0.835754	0.257112	0.960442	-0.0431415	0.00491696	0.209639	1.20302	-0.00244659	0	0	0.111261	-0.126289	-0.450272	0.442954	0.0707584	0	0	-0.512958	0.0948294	0.171001	0.430974	-0.397279	0.067738	1.1634	0.956959	0	0	0.339499	-0.303836	-0.0505165	1.14546	1.04568	0	0
0.72	2.57377	1.32999	-1.24234	0.834146	0.268213	0.963324	-0.0233649	0.00885824	0.202449	1.19052	0.0156322	0	0	0.101486	-0.120788	-0.444303	0.430142	0.0744931	0	0	-0.508298	0.101009	0.163819	0.429785	-0.397682	0.0655869	1.16442	0.956806	0	0	0.340222	-0.302387	-0.0511441	1.14359	1.04715	0	0
0.73	2.55939	1.33567	-1.2181	0.832491	0.279288	0.966101	-0.00440644	0.0117162	0.193019	1.17368	0.0333003	0	0	0.0901794	-0.114553	-0.438866	0.414172	0.0779644	0	0	-0.503294	0.107405	0.156216	0.4278	-0.398423	0.0625624	1.16644	0.957886	0	0	0.340369	-0.300984	-0.0516051	1.14298	1.04894	0	0
0.74	2.54265	1.3411	-1.19018	0.830811	0.290316	0.968717	0.0139975	0.0144435	0.18131	1.15316	0.0490873	0	0	0.0783938	-0.108534	-0.432777	0.396575	0.0810029	0	0	-0.497922	0.114679	0.148083	0.425157	-0.399779	0.0592861	1.16924	0.958716	0	0	0.340399	-0.299624	-0.0519695	1.14329	1.05097	0	0
0.75	2.51994	1.34621	-1.15556	0.829235	0.301308	0.971092	0.0324982	0.0183501	0.168272	1.13007	0.0620807	0	0	0.0670189	-0.103578	-0.424109	0.378338	0.0836809	0	0	-0.491809	0.123177	0.139877	0.422096	-0.401777	0.056606	1.17252	0.958895	0	0	0.340208	-0.298804	-0.0513768	1.14432	1.05253	0	0
0.76	2.49482	1.35114	-1.11834	0.827764	0.312194	0.973258	0.0512044	0.0225965	0.155042	1.10506	0.0720754	0	0	0.0557282	-0.0990753	-0.414254	0.359592	0.0858773	0	0	-0.485393	0.131703	0.131469	0.41925	-0.404008	0.0549027	1.17607	0.957845	0	0	0.339495	-0.298748	-0.050553	1.14723	1.05261	0	0
0.77	2.47103	1.35574	-1.08272	0.826372	0.322959	0.97529	0.0697675	0.0262693	0.142009	1.07871	0.0797761	0	0	0.0441264	-0.0946312	-0.404773	0.341004	0.0875093	0	0	-0.479234	0.139453	0.123062	0.416852	-0.406232	0.0537548	1.17967	0.957404	0	0	0.33896	-0.298882	-0.0498332	1.15058	1.05185	0	0
0.78	2.44893	1.35988	-1.04953	0.825149	0.333642	0.977195	0.0883849	0.0290007	0.128592	1.0518	0.0858119	0	0	0.0322437	-0.090518	-0.395898	0.323444	0.0889959	0	0	-0.473373	0.146196	0.115187	0.414692	-0.408222	0.0528056	1.18297	0.957624	0	0	0.338764	-0.29925	-0.0485352	1.15367	1.05152	0	0
0.79	2.42806	1.36367	-1.0188	0.824117	0.344261	0.978933	0.107254	0.0308337	0.115004	1.02467	0.0909042	0	0	0.0199742	-0.0865768	-0.387279	0.306392	0.0904236	0	0	-0.467561	0.151893	0.108321	0.412568	-0.409934	0.0518947	1.18578	0.957371	0	0	0.338647	-0.299721	-0.0468484	1.15674	1.05055	0	0
0.8	2.42028	1.36656	-1.00242	0.823182	0.354767	0.980783	0.123985	0.0300886	0.102367	0.996611	0.0947671	0	0	-0.00164895	-0.0753475	-0.363357	0.271825	0.0831223	0	0	-0.464122	0.154848	0.102061	0.410734	-0.411084	0.0505689	1.18831	0.956498	0	0	0.339523	-0.300101	-0.0450993	1.15868	1.04963	0	0
0.81	2.39469	1.36936	-0.970316	0.822561	0.365322	0.982011	0.143129	0.0334315	0.0917417	0.968779	0.0981335	0	0	-0.00817394	-0.0783672	-0.372512	0.272354	0.0930112	0	0	-0.457918	0.16022	0.0985064	0.408061	-0.412763	0.0494647	1.19128	0.955634	0	0	0.339748	-0.299597	-0.0439141	1.15935	1.04936	0	0
0.82	2.37643	1.37212	-0.946234	0.821966	0.375847	0.983228	0.161337	0.0350631	0.0813123	0.939888	0.100937	0	0	-0.0222459	-0.0749429	-0.367387	0.256022	0.0953444	0	0	-0.452418	0.164124	0.0952168	0.405505	-0.414094	0.0479799	1.19392	0.95336	0	0	0.340598	-0.298694	-0.0426721	1.15818	1.04845	0	0
0.83	2.36213	1.37346	-0.92661	0.821427	0.386324	0.984365	0.177613	0.0368724	0.0707301	0.909896	0.104858	0	0	-0.0384352	-0.0716133	-0.362355	0.238896	0.0972121	0	0	-0.448488	0.168119	0.092199	0.404264	-0.415226	0.047135	1.19553	0.952222	0	0	0.341476	-0.297746	-0.0421584	1.15712	1.04829	0	0
0.84	2.34818	1.37412	-0.907077	0.820903	0.396797	0.985309	0.193297	0.0387744	0.0585422	0.879419	0.109135	0	0	-0.0547023	-0.0689723	-0.356737	0.223063	0.0995349	0	0	-0.444741	0.172738	0.0887274	0.40398	-0.416161	0.0470591	1.19634	0.952236	0	0	0.342331	-0.296668	-0.0420399	1.15545	1.04972	0	0
0.85	2.33418	1.37428	-0.886888	0.820382	0.407303	0.986039	0.208501	0.0408257	0.0444726	0.848588	0.113075	0	0	-0.0702867	-0.0672869	-0.350985	0.209481	0.103074	0	0	-0.440934	0.178075	0.0843608	0.404496	-0.416729	0.0476931	1.19644	0.953113	0	0	0.342878	-0.29535	-0.0428011	1.15345	1.05146	0	0
0.86	2.32081	1.37415	-0.866702	0.81991	0.417745	0.986563	0.2235	0.0431117	0.0295913	0.817624	0.117189	0	0	-0.0848048	-0.0665238	-0.345225	0.198385	0.107584	0	0	-0.437354	0.183641	0.0792301	0.405656	-0.416827	0.0485697	1.19593	0.953542	0	0	0.343482	-0.29402	-0.0442471	1.15152	1.05262	0	0
0.87	2.30943	1.37353	-0.847925	0.819499	0.428152	0.986925	0.237852	0.0455212	0.013677	0.786584	0.121941	0	0	-0.0991925	-0.0664008	-0.338784	0.188738	0.112027	0	0	-0.434428	0.18922	0.073713	0.407168	-0.416574	0.0491145	1.19488	0.953074	0	0	0.344342	-0.292777	-0.0459372	1.14991	1.05365	0	0
0.88	2.30015	1.37284	-0.830879	0.819156	0.438503	0.987085	0.252269	0.0476024	-0.00336675	0.756452	0.126949	0	0	-0.113389	-0.0664634	-0.332951	0.179656	0.117189	0	0	-0.431946	0.194434	0.0681872	0.408779	-0.416365	0.0493287	1.19373	0.951493	0	0	0.345689	-0.291652	-0.0473905	1.14854	1.0552	0	0
0.89	2.29601	1.37177	-0.818712	0.818883	0.448842	0.987136	0.265919	0.0489799	-0.0216581	0.727192	0.131383	0	0	-0.127908	-0.0668589	-0.328589	0.172978	0.124006	0	0	-0.430614	0.198954	0.0628075	0.410489	-0.416329	0.0492479	1.19271	0.950167	0	0	0.347648	-0.290819	-0.04804	1.14711	1.05673	0	0
0.9	2.29561	1.37038	-0.810271	0.818697	0.459163	0.987077	0.278748	0.0499972	-0.0411132	0.698304	0.134626	0	0	-0.142834	-0.067294	-0.324635	0.166886	0.13091	0	0	-0.430308	0.202883	0.0577216	0.412468	-0.41649	0.0491811	1.1918	0.949752	0	0	0.34996	-0.29024	-0.047991	1.14631	1.05783	0	0
0.91	2.29625	1.36896	-0.802661	0.818564	0.469488	0.986852	0.291077	0.050753	-0.0621137	0.669262	0.136573	0	0	-0.157351	-0.0678896	-0.320557	0.161712	0.137902	0	0	-0.430381	0.206657	0.052488	0.414816	-0.416636	0.0492302	1.19083	0.950144	0	0	0.352029	-0.289659	-0.0483071	1.14655	1.0594	0	0
